Jump_normalized_Motion_pl03
version=1
nRows=25
nColumns=43
inDegrees=yes
endheader
time		pelvis_tilt		pelvis_list		pelvis_rotation		pelvis_tx		pelvis_ty		pelvis_tz		hip_flexion_r		hip_adduction_r		hip_rotation_r		knee_angle_r		ankle_angle_r		subtalar_angle_r		mtp_angle_r		hip_flexion_l		hip_adduction_l		hip_rotation_l		knee_angle_l		ankle_angle_l		subtalar_angle_l		mtp_angle_l		lumbar_extension		lumbar_bending		lumbar_rotation		neck_flexion		neck_lateral_bending		neck_rotation		arm_flex_r		arm_add_r		arm_rot_r		elbow_flex_r		pro_sup_r		wrist_flex_r		wrist_dev_r		hand_finger_flex_r		arm_flex_l		arm_add_l		arm_rot_l		elbow_flex_l		pro_sup_l		wrist_flex_l		wrist_dev_l		hand_finger_flex_l		
0.407500		-1.538965		-18.052452		90.745648		0.015858		1.769327		1.830254		77.921000		-8.028867		9.051538		-131.772709		28.217210		-5.883614		2.691089		76.480560		-0.263709		6.601412		-132.947941		31.791772		-5.977932		12.011089		-48.725207		0.263225		-0.730743		39.779559		0.542206		-0.670678		124.369306		-8.472793		35.614346		52.558097		65.779960		-29.755698		5.535413		30.036953		122.605166		-4.182950		21.521638		57.021816		99.143458		-19.746485		14.910323		69.080700		
0.410758		-1.616493		-18.381595		90.658920		0.015850		1.770916		1.827195		77.710037		-7.992299		9.104007		-131.463386		28.240782		-5.883233		2.773239		76.212316		-0.276226		6.437626		-132.604167		31.841672		-6.145164		12.047881		-48.417696		0.177617		-0.754138		40.007507		0.512779		-0.656108		125.230455		-8.279207		35.752158		52.307317		65.793018		-29.680867		5.365533		30.058462		123.399295		-4.098576		21.607226		56.859226		99.146193		-19.933235		14.726697		68.901613		
0.414015		-1.713947		-18.668227		90.577914		0.015827		1.772666		1.823923		77.442237		-7.997238		9.159257		-131.144965		28.225376		-5.874569		2.845950		75.881222		-0.274997		6.259899		-132.272919		31.875039		-6.302288		12.078288		-48.133718		0.090324		-0.772279		40.025121		0.488418		-0.656718		125.970316		-8.155182		35.819436		52.204467		65.793283		-29.635177		5.116104		30.047923		124.074882		-4.040473		21.632609		56.842566		99.170940		-20.110763		14.552068		68.736480		
0.417273		-1.793858		-18.968395		90.512868		0.015793		1.774436		1.820544		77.171392		-8.013422		9.192736		-130.828180		28.197858		-5.856598		2.899434		75.569948		-0.263540		6.112800		-131.936912		31.881470		-6.410463		12.099098		-47.818436		0.023232		-0.770263		39.941564		0.477721		-0.658031		126.624526		-8.056099		35.821761		52.193981		65.789198		-29.610262		4.903136		30.031786		124.674605		-3.990283		21.614700		56.896786		99.187099		-20.248586		14.411422		68.612884		
0.420530		-1.906662		-19.198176		90.440736		0.015722		1.776428		1.816977		76.795094		-8.045911		9.261399		-130.481018		28.154301		-5.831730		2.992578		75.132110		-0.241407		5.905769		-131.537461		31.873982		-6.608757		12.131550		-47.567949		-0.066351		-0.793145		39.841756		0.468173		-0.660954		127.243599		-7.980424		35.873666		52.177752		65.737795		-29.615713		4.576845		29.946934		125.239744		-3.935202		21.617246		56.944885		99.207463		-20.436834		14.209345		68.439226		
0.423788		-2.195271		-19.134306		90.253628		0.015548		1.779076		1.813181		76.118535		-8.114783		9.539848		-130.114952		28.093629		-5.814244		3.282180		74.280800		-0.170730		5.422180		-131.060010		31.875840		-7.221171		12.233206		-47.679293		-0.308605		-0.903328		39.892853		0.436927		-0.668007		128.062654		-7.920821		36.268161		51.936541		65.541235		-29.611788		3.752482		29.701302		125.952839		-3.905579		21.816067		56.851317		99.251327		-20.913930		13.688892		67.971068		
0.427045		-2.219630		-19.515316		90.237388		0.015493		1.780810		1.809566		75.878560		-8.143266		9.492189		-129.748023		28.062675		-5.775026		3.301055		74.043055		-0.148308		5.354050		-130.682019		31.844890		-7.226051		12.238215		-47.231209		-0.319031		-0.876170		39.746234		0.439084		-0.664864		128.521409		-7.835275		36.143222		52.032502		65.509325		-29.638027		3.687163		29.669299		126.420552		-3.831299		21.720077		56.922947		99.234104		-20.952911		13.637061		67.942235		
0.430303		-2.238596		-19.889956		90.224922		0.015457		1.782575		1.805919		75.617569		-8.153019		9.449467		-129.372763		28.035501		-5.745125		3.323035		73.794052		-0.112368		5.299180		-130.291777		31.830644		-7.264833		12.245159		-46.792051		-0.330002		-0.851307		39.623498		0.437340		-0.660113		128.987573		-7.750788		36.037547		52.101691		65.477446		-29.669413		3.626465		29.629782		126.904123		-3.746508		21.637746		56.957289		99.223014		-20.994299		13.576181		67.911144		
0.433561		-2.253902		-20.256026		90.214210		0.015484		1.784368		1.802224		75.337985		-8.150049		9.398371		-128.991301		28.010028		-5.723985		3.348888		73.533012		-0.073846		5.257963		-129.898584		31.821659		-7.336696		12.253222		-46.356955		-0.344492		-0.826023		39.507530		0.433534		-0.655159		129.451291		-7.674565		35.956496		52.154162		65.443595		-29.700914		3.575027		29.587098		127.394363		-3.661079		21.573559		56.954340		99.217307		-21.035022		13.505167		67.880000		
0.436818		-2.225845		-20.560090		90.205770		0.015615		1.786136		1.798592		74.991789		-8.102070		9.284105		-128.619517		28.017707		-5.767835		3.458126		73.207633		-0.059714		5.230180		-129.512074		31.854321		-7.696914		12.292089		-45.999778		-0.354499		-0.756216		39.482829		0.439214		-0.655561		130.038396		-7.618485		36.018594		52.089247		65.319503		-29.762323		3.535152		29.474662		128.057609		-3.504235		21.636430		56.669064		99.212583		-21.105688		13.301995		67.812148		
0.440076		-2.226463		-20.902322		90.186359		0.015804		1.787958		1.794778		74.664419		-8.070426		9.206468		-128.220803		27.979942		-5.767732		3.509484		72.911426		-0.048423		5.213504		-129.125703		31.808361		-7.838025		12.307159		-45.569650		-0.385742		-0.714885		39.328332		0.452400		-0.664508		130.485041		-7.590674		36.011335		52.143327		65.257095		-29.785531		3.493458		29.424269		128.521218		-3.436141		21.620788		56.643839		99.199737		-21.148033		13.176421		67.782604		
0.443333		-2.199326		-21.270868		90.123993		0.016139		1.789631		1.790950		74.375743		-7.956561		9.099679		-127.830040		27.942169		-5.788630		3.569346		72.639046		-0.119454		5.209665		-128.749545		31.762333		-7.978689		12.330892		-45.081695		-0.446113		-0.626583		39.098267		0.472729		-0.692050		130.915906		-7.581789		36.056325		52.173709		65.209785		-29.798284		3.448191		29.393277		128.973286		-3.352538		21.651489		56.573786		99.181950		-21.200047		13.049993		67.748716		
0.446591		-2.144257		-21.639124		90.025080		0.016629		1.791334		1.787127		74.085034		-7.775142		8.960774		-127.426105		27.905519		-5.853095		3.671940		72.363893		-0.267917		5.221812		-128.372952		31.719160		-8.212074		12.376912		-44.586079		-0.529666		-0.466332		38.851961		0.510795		-0.739426		131.374443		-7.614634		36.186153		52.151381		65.134181		-29.817104		3.388450		29.350672		129.452385		-3.256930		21.745161		56.392503		99.148718		-21.281074		12.862745		67.696953		
0.449848		-2.163529		-22.024875		89.981603		0.016892		1.793114		1.783098		73.797507		-7.743909		8.883615		-127.017675		27.848027		-5.830380		3.683006		72.073878		-0.285578		5.206465		-127.968434		31.662225		-8.206233		12.382138		-44.068778		-0.589790		-0.441573		38.678450		0.510372		-0.748618		131.709877		-7.573226		36.143449		52.211975		65.129748		-29.823975		3.340140		29.344799		129.787329		-3.191368		21.694658		56.456917		99.132832		-21.317662		12.812288		67.680212		
0.453106		-2.187500		-22.414677		89.917517		0.017153		1.795023		1.779035		73.499256		-7.705010		8.803633		-126.578358		27.794076		-5.813697		3.693835		71.770818		-0.322193		5.186886		-127.527754		31.616589		-8.203353		12.389702		-43.545209		-0.662362		-0.398206		38.476593		0.518233		-0.759049		132.045800		-7.550557		36.108601		52.234007		65.136680		-29.832574		3.287030		29.341303		130.113087		-3.140215		21.647383		56.475417		99.120927		-21.361958		12.773976		67.657911		
0.456364		-2.197536		-22.639663		89.577707		0.017844		1.797256		1.774782		73.038472		-7.347230		8.769397		-126.098250		27.651212		-6.060558		3.871830		71.227432		-0.666801		5.060127		-127.086196		31.606964		-8.295550		12.567996		-43.190918		-0.930891		-0.070563		38.182715		0.548178		-0.853709		132.462621		-7.661460		36.342852		52.157012		65.182913		-29.817054		2.870378		29.424291		130.460103		-2.983188		21.654693		56.328973		99.005204		-21.725221		12.552090		67.498348		
0.459621		-2.220031		-22.891041		89.303541		0.018327		1.799495		1.770409		72.589894		-7.098926		8.731448		-125.610897		27.512965		-6.247044		4.018749		70.706298		-0.912432		4.955190		-126.634928		31.575820		-8.347100		12.717902		-42.800307		-1.143657		0.190251		37.930526		0.570810		-0.928371		132.813832		-7.728778		36.521732		52.101831		65.211158		-29.805195		2.534891		29.497012		130.766719		-2.853123		21.657993		56.233987		98.908550		-22.021406		12.369626		67.369713		
0.462879		-2.259228		-23.255376		89.264101		0.018378		1.801605		1.766018		72.228952		-7.128586		8.666216		-125.131220		27.437180		-6.215970		4.025068		70.348935		-0.891836		4.928418		-126.149663		31.506788		-8.304772		12.729075		-42.285614		-1.189395		0.215206		37.718014		0.578504		-0.928733		133.064091		-7.706607		36.469235		52.114968		65.208918		-29.809006		2.499840		29.505284		131.011430		-2.817021		21.618388		56.279930		98.901494		-22.052914		12.349972		67.354462		
0.466136		-2.294135		-23.590296		89.221330		0.018436		1.803738		1.761488		71.825609		-7.154053		8.602163		-124.643892		27.349179		-6.192080		4.030726		69.951848		-0.881993		4.900005		-125.664231		31.430357		-8.260561		12.742351		-41.787882		-1.237274		0.250581		37.473044		0.589041		-0.929577		133.282528		-7.698583		36.420613		52.130985		65.209935		-29.802401		2.456356		29.520399		131.226151		-2.776942		21.582841		56.324983		98.897411		-22.086252		12.332402		67.336204		
0.469394		-2.253375		-23.210485		89.117317		0.018805		1.807281		1.756075		70.523654		-7.055484		8.427974		-124.058300		27.121927		-6.513370		4.275460		68.659199		-1.042367		4.869632		-125.120583		31.389016		-8.195589		13.091753		-42.068021		-1.328029		0.430523		37.009982		0.660478		-1.004502		133.517700		-7.758083		36.310824		52.059243		65.243704		-29.600033		2.003214		29.805024		131.449919		-2.604933		21.464214		56.248396		98.923555		-22.420017		12.181535		67.113147		
0.472652		-2.251324		-23.341311		89.076223		0.018980		1.809730		1.751130		69.863049		-7.047776		8.326768		-123.540495		26.988387		-6.579148		4.355428		68.016478		-1.095217		4.853513		-124.634502		31.309656		-8.143495		13.210151		-41.774361		-1.371985		0.504222		36.785641		0.679868		-1.026269		133.698983		-7.767183		36.267437		52.038624		65.257214		-29.527344		1.855653		29.904292		131.642661		-2.531066		21.435504		56.255818		98.935805		-22.518804		12.122349		67.040482		
0.475909		-2.103187		-23.403858		89.133273		0.019181		1.812360		1.746037		69.072134		-7.002972		8.056931		-122.976261		26.802914		-6.615323		4.467804		67.331608		-1.193452		4.990697		-124.147168		31.140123		-8.071467		13.395314		-41.544513		-1.278727		0.634209		36.445500		0.685860		-1.045728		133.858203		-7.801631		36.198595		52.041653		65.306612		-29.396624		1.729520		30.047583		131.775817		-2.505107		21.392668		56.299010		98.973248		-22.501848		12.025450		67.014884		
0.479167		-1.836557		-23.267374		89.238007		0.019397		1.815309		1.740615		68.015243		-6.923980		7.656184		-122.378931		26.569083		-6.722556		4.662237		66.418902		-1.362329		5.234794		-123.682135		30.935315		-7.983644		13.711300		-41.514209		-1.096615		0.830226		36.052636		0.693963		-1.078750		133.990622		-7.829641		36.121867		52.011831		65.390903		-29.185108		1.532754		30.279159		131.886486		-2.455229		21.316834		56.325396		99.034869		-22.475825		11.871003		66.972292		
0.482424		-1.578614		-23.084531		89.378360		0.019413		1.818377		1.735069		66.909563		-6.903334		7.254484		-121.767147		26.229717		-6.830130		4.894030		65.459988		-1.480221		5.479690		-123.187311		30.683531		-7.809457		14.188202		-41.511736		-0.864094		1.010440		35.500015		0.616412		-1.071419		134.130754		-7.863479		36.147924		51.946806		65.589074		-28.958784		1.326363		30.497499		131.875004		-2.408810		21.091181		56.415333		99.154986		-22.374991		11.705550		66.986985		
0.485682		-1.577641		-23.334304		89.356460		0.019425		1.820496		1.729949		66.441197		-6.957061		7.146105		-121.252412		26.046407		-6.762686		4.899160		64.987273		-1.517238		5.461707		-122.713188		30.513937		-7.732872		14.233223		-41.021342		-0.879306		1.033310		35.201701		0.649686		-1.079480		134.188706		-7.881268		36.184157		51.937251		65.617866		-28.913756		1.312599		30.525877		131.903132		-2.413047		21.069104		56.486002		99.172048		-22.355379		11.686921		66.997424		
